G75*
G70*
%OFA0B0*%
%FSLAX24Y24*%
%IPPOS*%
%LPD*%
%AMOC8*
5,1,8,0,0,1.08239X$1,22.5*
%
%ADD10C,0.0000*%
%ADD11C,0.0520*%
%ADD12OC8,0.0520*%
%ADD13C,0.0594*%
%ADD14R,0.0600X0.0600*%
%ADD15OC8,0.0600*%
%ADD16C,0.0787*%
%ADD17C,0.0660*%
%ADD18C,0.0600*%
%ADD19OC8,0.0630*%
%ADD20C,0.0630*%
%ADD21C,0.0400*%
%ADD22C,0.0475*%
%ADD23R,0.0396X0.0396*%
%ADD24C,0.0160*%
%ADD25C,0.0396*%
%ADD26C,0.1000*%
D10*
X-001000Y004000D02*
X079992Y004000D01*
X079992Y041370D01*
X-001000Y041370D01*
X-001000Y004000D01*
X062850Y009100D02*
X062852Y009150D01*
X062858Y009200D01*
X062868Y009250D01*
X062881Y009298D01*
X062898Y009346D01*
X062919Y009392D01*
X062943Y009436D01*
X062971Y009478D01*
X063002Y009518D01*
X063036Y009555D01*
X063073Y009590D01*
X063112Y009621D01*
X063153Y009650D01*
X063197Y009675D01*
X063243Y009697D01*
X063290Y009715D01*
X063338Y009729D01*
X063387Y009740D01*
X063437Y009747D01*
X063487Y009750D01*
X063538Y009749D01*
X063588Y009744D01*
X063638Y009735D01*
X063686Y009723D01*
X063734Y009706D01*
X063780Y009686D01*
X063825Y009663D01*
X063868Y009636D01*
X063908Y009606D01*
X063946Y009573D01*
X063981Y009537D01*
X064014Y009498D01*
X064043Y009457D01*
X064069Y009414D01*
X064092Y009369D01*
X064111Y009322D01*
X064126Y009274D01*
X064138Y009225D01*
X064146Y009175D01*
X064150Y009125D01*
X064150Y009075D01*
X064146Y009025D01*
X064138Y008975D01*
X064126Y008926D01*
X064111Y008878D01*
X064092Y008831D01*
X064069Y008786D01*
X064043Y008743D01*
X064014Y008702D01*
X063981Y008663D01*
X063946Y008627D01*
X063908Y008594D01*
X063868Y008564D01*
X063825Y008537D01*
X063780Y008514D01*
X063734Y008494D01*
X063686Y008477D01*
X063638Y008465D01*
X063588Y008456D01*
X063538Y008451D01*
X063487Y008450D01*
X063437Y008453D01*
X063387Y008460D01*
X063338Y008471D01*
X063290Y008485D01*
X063243Y008503D01*
X063197Y008525D01*
X063153Y008550D01*
X063112Y008579D01*
X063073Y008610D01*
X063036Y008645D01*
X063002Y008682D01*
X062971Y008722D01*
X062943Y008764D01*
X062919Y008808D01*
X062898Y008854D01*
X062881Y008902D01*
X062868Y008950D01*
X062858Y009000D01*
X062852Y009050D01*
X062850Y009100D01*
X068350Y009100D02*
X068352Y009150D01*
X068358Y009200D01*
X068368Y009250D01*
X068381Y009298D01*
X068398Y009346D01*
X068419Y009392D01*
X068443Y009436D01*
X068471Y009478D01*
X068502Y009518D01*
X068536Y009555D01*
X068573Y009590D01*
X068612Y009621D01*
X068653Y009650D01*
X068697Y009675D01*
X068743Y009697D01*
X068790Y009715D01*
X068838Y009729D01*
X068887Y009740D01*
X068937Y009747D01*
X068987Y009750D01*
X069038Y009749D01*
X069088Y009744D01*
X069138Y009735D01*
X069186Y009723D01*
X069234Y009706D01*
X069280Y009686D01*
X069325Y009663D01*
X069368Y009636D01*
X069408Y009606D01*
X069446Y009573D01*
X069481Y009537D01*
X069514Y009498D01*
X069543Y009457D01*
X069569Y009414D01*
X069592Y009369D01*
X069611Y009322D01*
X069626Y009274D01*
X069638Y009225D01*
X069646Y009175D01*
X069650Y009125D01*
X069650Y009075D01*
X069646Y009025D01*
X069638Y008975D01*
X069626Y008926D01*
X069611Y008878D01*
X069592Y008831D01*
X069569Y008786D01*
X069543Y008743D01*
X069514Y008702D01*
X069481Y008663D01*
X069446Y008627D01*
X069408Y008594D01*
X069368Y008564D01*
X069325Y008537D01*
X069280Y008514D01*
X069234Y008494D01*
X069186Y008477D01*
X069138Y008465D01*
X069088Y008456D01*
X069038Y008451D01*
X068987Y008450D01*
X068937Y008453D01*
X068887Y008460D01*
X068838Y008471D01*
X068790Y008485D01*
X068743Y008503D01*
X068697Y008525D01*
X068653Y008550D01*
X068612Y008579D01*
X068573Y008610D01*
X068536Y008645D01*
X068502Y008682D01*
X068471Y008722D01*
X068443Y008764D01*
X068419Y008808D01*
X068398Y008854D01*
X068381Y008902D01*
X068368Y008950D01*
X068358Y009000D01*
X068352Y009050D01*
X068350Y009100D01*
D11*
X002760Y035500D02*
X002240Y035500D01*
X002240Y034500D02*
X002760Y034500D01*
X002760Y029500D02*
X002240Y029500D01*
X005240Y029500D02*
X005760Y029500D01*
X002760Y033500D02*
X002240Y033500D01*
X002240Y032500D02*
X002760Y032500D01*
X002760Y030500D02*
X002240Y030500D01*
X002240Y031500D02*
X002760Y031500D01*
X005240Y030500D02*
X005760Y030500D01*
X005760Y031500D02*
X005240Y031500D01*
X005240Y032500D02*
X005760Y032500D01*
X005760Y033500D02*
X005240Y033500D01*
X005240Y034500D02*
X005760Y034500D01*
X005760Y035500D02*
X005240Y035500D01*
X002760Y025500D02*
X002240Y025500D01*
X002240Y024500D02*
X002760Y024500D01*
X002760Y019500D02*
X002240Y019500D01*
X005240Y019500D02*
X005760Y019500D01*
X002760Y023500D02*
X002240Y023500D01*
X002240Y022500D02*
X002760Y022500D01*
X002760Y020500D02*
X002240Y020500D01*
X002240Y021500D02*
X002760Y021500D01*
X005240Y020500D02*
X005760Y020500D01*
X005760Y021500D02*
X005240Y021500D01*
X005240Y022500D02*
X005760Y022500D01*
X005760Y023500D02*
X005240Y023500D01*
X005240Y024500D02*
X005760Y024500D01*
X005760Y025500D02*
X005240Y025500D01*
X002760Y015500D02*
X002240Y015500D01*
X002240Y014500D02*
X002760Y014500D01*
X002760Y009500D02*
X002240Y009500D01*
X005240Y009500D02*
X005760Y009500D01*
X002760Y013500D02*
X002240Y013500D01*
X002240Y012500D02*
X002760Y012500D01*
X002760Y010500D02*
X002240Y010500D01*
X002240Y011500D02*
X002760Y011500D01*
X005240Y010500D02*
X005760Y010500D01*
X005760Y011500D02*
X005240Y011500D01*
X005240Y012500D02*
X005760Y012500D01*
X005760Y013500D02*
X005240Y013500D01*
X005240Y014500D02*
X005760Y014500D01*
X005760Y015500D02*
X005240Y015500D01*
X008740Y037500D02*
X009260Y037500D01*
X009260Y036500D02*
X008740Y036500D01*
X008740Y031500D02*
X009260Y031500D01*
X009260Y030500D02*
X008740Y030500D01*
X008740Y035500D02*
X009260Y035500D01*
X009260Y034500D02*
X008740Y034500D01*
X008740Y032500D02*
X009260Y032500D01*
X009260Y033500D02*
X008740Y033500D01*
X011740Y030500D02*
X012260Y030500D01*
X012260Y031500D02*
X011740Y031500D01*
X011740Y032500D02*
X012260Y032500D01*
X012260Y033500D02*
X011740Y033500D01*
X011740Y034500D02*
X012260Y034500D01*
X012260Y035500D02*
X011740Y035500D01*
X011740Y036500D02*
X012260Y036500D01*
X012260Y037500D02*
X011740Y037500D01*
X009260Y027500D02*
X008740Y027500D01*
X008740Y026500D02*
X009260Y026500D01*
X009260Y021500D02*
X008740Y021500D01*
X008740Y020500D02*
X009260Y020500D01*
X009260Y025500D02*
X008740Y025500D01*
X008740Y024500D02*
X009260Y024500D01*
X009260Y022500D02*
X008740Y022500D01*
X008740Y023500D02*
X009260Y023500D01*
X011740Y020500D02*
X012260Y020500D01*
X012260Y021500D02*
X011740Y021500D01*
X011740Y022500D02*
X012260Y022500D01*
X012260Y023500D02*
X011740Y023500D01*
X011740Y024500D02*
X012260Y024500D01*
X012260Y025500D02*
X011740Y025500D01*
X011740Y026500D02*
X012260Y026500D01*
X012260Y027500D02*
X011740Y027500D01*
X009260Y017500D02*
X008740Y017500D01*
X008740Y016500D02*
X009260Y016500D01*
X009260Y011500D02*
X008740Y011500D01*
X008740Y010500D02*
X009260Y010500D01*
X009260Y015500D02*
X008740Y015500D01*
X008740Y014500D02*
X009260Y014500D01*
X009260Y012500D02*
X008740Y012500D01*
X008740Y013500D02*
X009260Y013500D01*
X011740Y010500D02*
X012260Y010500D01*
X012260Y011500D02*
X011740Y011500D01*
X011740Y012500D02*
X012260Y012500D01*
X012260Y013500D02*
X011740Y013500D01*
X011740Y014500D02*
X012260Y014500D01*
X012260Y015500D02*
X011740Y015500D01*
X011740Y016500D02*
X012260Y016500D01*
X012260Y017500D02*
X011740Y017500D01*
X021240Y035500D02*
X021760Y035500D01*
X021760Y034500D02*
X021240Y034500D01*
X021240Y029500D02*
X021760Y029500D01*
X024240Y029500D02*
X024760Y029500D01*
X021760Y033500D02*
X021240Y033500D01*
X021240Y032500D02*
X021760Y032500D01*
X021760Y030500D02*
X021240Y030500D01*
X021240Y031500D02*
X021760Y031500D01*
X024240Y030500D02*
X024760Y030500D01*
X024760Y031500D02*
X024240Y031500D01*
X024240Y032500D02*
X024760Y032500D01*
X024760Y033500D02*
X024240Y033500D01*
X024240Y034500D02*
X024760Y034500D01*
X024760Y035500D02*
X024240Y035500D01*
X021760Y025500D02*
X021240Y025500D01*
X021240Y024500D02*
X021760Y024500D01*
X021760Y019500D02*
X021240Y019500D01*
X024240Y019500D02*
X024760Y019500D01*
X021760Y023500D02*
X021240Y023500D01*
X021240Y022500D02*
X021760Y022500D01*
X021760Y020500D02*
X021240Y020500D01*
X021240Y021500D02*
X021760Y021500D01*
X024240Y020500D02*
X024760Y020500D01*
X024760Y021500D02*
X024240Y021500D01*
X024240Y022500D02*
X024760Y022500D01*
X024760Y023500D02*
X024240Y023500D01*
X024240Y024500D02*
X024760Y024500D01*
X024760Y025500D02*
X024240Y025500D01*
X021760Y015500D02*
X021240Y015500D01*
X021240Y014500D02*
X021760Y014500D01*
X021760Y009500D02*
X021240Y009500D01*
X024240Y009500D02*
X024760Y009500D01*
X021760Y013500D02*
X021240Y013500D01*
X021240Y012500D02*
X021760Y012500D01*
X021760Y010500D02*
X021240Y010500D01*
X021240Y011500D02*
X021760Y011500D01*
X024240Y010500D02*
X024760Y010500D01*
X024760Y011500D02*
X024240Y011500D01*
X024240Y012500D02*
X024760Y012500D01*
X024760Y013500D02*
X024240Y013500D01*
X024240Y014500D02*
X024760Y014500D01*
X024760Y015500D02*
X024240Y015500D01*
X027740Y037500D02*
X028260Y037500D01*
X028260Y036500D02*
X027740Y036500D01*
X027740Y031500D02*
X028260Y031500D01*
X028260Y030500D02*
X027740Y030500D01*
X027740Y035500D02*
X028260Y035500D01*
X028260Y034500D02*
X027740Y034500D01*
X027740Y032500D02*
X028260Y032500D01*
X028260Y033500D02*
X027740Y033500D01*
X030740Y030500D02*
X031260Y030500D01*
X031260Y031500D02*
X030740Y031500D01*
X030740Y032500D02*
X031260Y032500D01*
X031260Y033500D02*
X030740Y033500D01*
X030740Y034500D02*
X031260Y034500D01*
X031260Y035500D02*
X030740Y035500D01*
X030740Y036500D02*
X031260Y036500D01*
X031260Y037500D02*
X030740Y037500D01*
X028260Y027500D02*
X027740Y027500D01*
X027740Y026500D02*
X028260Y026500D01*
X028260Y021500D02*
X027740Y021500D01*
X027740Y020500D02*
X028260Y020500D01*
X028260Y025500D02*
X027740Y025500D01*
X027740Y024500D02*
X028260Y024500D01*
X028260Y022500D02*
X027740Y022500D01*
X027740Y023500D02*
X028260Y023500D01*
X030740Y020500D02*
X031260Y020500D01*
X031260Y021500D02*
X030740Y021500D01*
X030740Y022500D02*
X031260Y022500D01*
X031260Y023500D02*
X030740Y023500D01*
X030740Y024500D02*
X031260Y024500D01*
X031260Y025500D02*
X030740Y025500D01*
X030740Y026500D02*
X031260Y026500D01*
X031260Y027500D02*
X030740Y027500D01*
X028260Y017500D02*
X027740Y017500D01*
X027740Y016500D02*
X028260Y016500D01*
X028260Y011500D02*
X027740Y011500D01*
X027740Y010500D02*
X028260Y010500D01*
X028260Y015500D02*
X027740Y015500D01*
X027740Y014500D02*
X028260Y014500D01*
X028260Y012500D02*
X027740Y012500D01*
X027740Y013500D02*
X028260Y013500D01*
X030740Y010500D02*
X031260Y010500D01*
X031260Y011500D02*
X030740Y011500D01*
X030740Y012500D02*
X031260Y012500D01*
X031260Y013500D02*
X030740Y013500D01*
X030740Y014500D02*
X031260Y014500D01*
X031260Y015500D02*
X030740Y015500D01*
X030740Y016500D02*
X031260Y016500D01*
X031260Y017500D02*
X030740Y017500D01*
X040240Y035500D02*
X040760Y035500D01*
X040760Y034500D02*
X040240Y034500D01*
X040240Y029500D02*
X040760Y029500D01*
X043240Y029500D02*
X043760Y029500D01*
X040760Y033500D02*
X040240Y033500D01*
X040240Y032500D02*
X040760Y032500D01*
X040760Y030500D02*
X040240Y030500D01*
X040240Y031500D02*
X040760Y031500D01*
X043240Y030500D02*
X043760Y030500D01*
X043760Y031500D02*
X043240Y031500D01*
X043240Y032500D02*
X043760Y032500D01*
X043760Y033500D02*
X043240Y033500D01*
X043240Y034500D02*
X043760Y034500D01*
X043760Y035500D02*
X043240Y035500D01*
X040760Y025500D02*
X040240Y025500D01*
X040240Y024500D02*
X040760Y024500D01*
X040760Y019500D02*
X040240Y019500D01*
X043240Y019500D02*
X043760Y019500D01*
X040760Y023500D02*
X040240Y023500D01*
X040240Y022500D02*
X040760Y022500D01*
X040760Y020500D02*
X040240Y020500D01*
X040240Y021500D02*
X040760Y021500D01*
X043240Y020500D02*
X043760Y020500D01*
X043760Y021500D02*
X043240Y021500D01*
X043240Y022500D02*
X043760Y022500D01*
X043760Y023500D02*
X043240Y023500D01*
X043240Y024500D02*
X043760Y024500D01*
X043760Y025500D02*
X043240Y025500D01*
X046740Y037500D02*
X047260Y037500D01*
X047260Y036500D02*
X046740Y036500D01*
X046740Y031500D02*
X047260Y031500D01*
X047260Y030500D02*
X046740Y030500D01*
X046740Y035500D02*
X047260Y035500D01*
X047260Y034500D02*
X046740Y034500D01*
X046740Y032500D02*
X047260Y032500D01*
X047260Y033500D02*
X046740Y033500D01*
X049740Y030500D02*
X050260Y030500D01*
X050260Y031500D02*
X049740Y031500D01*
X049740Y032500D02*
X050260Y032500D01*
X050260Y033500D02*
X049740Y033500D01*
X049740Y034500D02*
X050260Y034500D01*
X050260Y035500D02*
X049740Y035500D01*
X049740Y036500D02*
X050260Y036500D01*
X050260Y037500D02*
X049740Y037500D01*
X047260Y027500D02*
X046740Y027500D01*
X046740Y026500D02*
X047260Y026500D01*
X047260Y021500D02*
X046740Y021500D01*
X046740Y020500D02*
X047260Y020500D01*
X047260Y025500D02*
X046740Y025500D01*
X046740Y024500D02*
X047260Y024500D01*
X047260Y022500D02*
X046740Y022500D01*
X046740Y023500D02*
X047260Y023500D01*
X049740Y020500D02*
X050260Y020500D01*
X050260Y021500D02*
X049740Y021500D01*
X049740Y022500D02*
X050260Y022500D01*
X050260Y023500D02*
X049740Y023500D01*
X049740Y024500D02*
X050260Y024500D01*
X050260Y025500D02*
X049740Y025500D01*
X049740Y026500D02*
X050260Y026500D01*
X050260Y027500D02*
X049740Y027500D01*
X059240Y035500D02*
X059760Y035500D01*
X059760Y034500D02*
X059240Y034500D01*
X059240Y029500D02*
X059760Y029500D01*
X062240Y029500D02*
X062760Y029500D01*
X059760Y033500D02*
X059240Y033500D01*
X059240Y032500D02*
X059760Y032500D01*
X059760Y030500D02*
X059240Y030500D01*
X059240Y031500D02*
X059760Y031500D01*
X062240Y030500D02*
X062760Y030500D01*
X062760Y031500D02*
X062240Y031500D01*
X062240Y032500D02*
X062760Y032500D01*
X062760Y033500D02*
X062240Y033500D01*
X062240Y034500D02*
X062760Y034500D01*
X062760Y035500D02*
X062240Y035500D01*
X059760Y025500D02*
X059240Y025500D01*
X059240Y024500D02*
X059760Y024500D01*
X059760Y019500D02*
X059240Y019500D01*
X062240Y019500D02*
X062760Y019500D01*
X059760Y023500D02*
X059240Y023500D01*
X059240Y022500D02*
X059760Y022500D01*
X059760Y020500D02*
X059240Y020500D01*
X059240Y021500D02*
X059760Y021500D01*
X062240Y020500D02*
X062760Y020500D01*
X062760Y021500D02*
X062240Y021500D01*
X062240Y022500D02*
X062760Y022500D01*
X062760Y023500D02*
X062240Y023500D01*
X062240Y024500D02*
X062760Y024500D01*
X062760Y025500D02*
X062240Y025500D01*
X065740Y037500D02*
X066260Y037500D01*
X066260Y036500D02*
X065740Y036500D01*
X065740Y031500D02*
X066260Y031500D01*
X066260Y030500D02*
X065740Y030500D01*
X065740Y035500D02*
X066260Y035500D01*
X066260Y034500D02*
X065740Y034500D01*
X065740Y032500D02*
X066260Y032500D01*
X066260Y033500D02*
X065740Y033500D01*
X068740Y030500D02*
X069260Y030500D01*
X069260Y031500D02*
X068740Y031500D01*
X068740Y032500D02*
X069260Y032500D01*
X069260Y033500D02*
X068740Y033500D01*
X068740Y034500D02*
X069260Y034500D01*
X069260Y035500D02*
X068740Y035500D01*
X068740Y036500D02*
X069260Y036500D01*
X069260Y037500D02*
X068740Y037500D01*
X066260Y027500D02*
X065740Y027500D01*
X065740Y026500D02*
X066260Y026500D01*
X066260Y021500D02*
X065740Y021500D01*
X065740Y020500D02*
X066260Y020500D01*
X066260Y025500D02*
X065740Y025500D01*
X065740Y024500D02*
X066260Y024500D01*
X066260Y022500D02*
X065740Y022500D01*
X065740Y023500D02*
X066260Y023500D01*
X068740Y020500D02*
X069260Y020500D01*
X069260Y021500D02*
X068740Y021500D01*
X068740Y022500D02*
X069260Y022500D01*
X069260Y023500D02*
X068740Y023500D01*
X068740Y024500D02*
X069260Y024500D01*
X069260Y025500D02*
X068740Y025500D01*
X068740Y026500D02*
X069260Y026500D01*
X069260Y027500D02*
X068740Y027500D01*
X046000Y014260D02*
X046000Y013740D01*
X047000Y013740D02*
X047000Y014260D01*
X048000Y014260D02*
X048000Y013740D01*
X049000Y013740D02*
X049000Y014260D01*
X050000Y014260D02*
X050000Y013740D01*
X051000Y013740D02*
X051000Y014260D01*
X052000Y014260D02*
X052000Y013740D01*
X053000Y013740D02*
X053000Y014260D01*
X054000Y014260D02*
X054000Y013740D01*
X055000Y013740D02*
X055000Y014260D01*
X056000Y014260D02*
X056000Y013740D01*
X057000Y013740D02*
X057000Y014260D01*
X058000Y014260D02*
X058000Y013740D01*
X059000Y013740D02*
X059000Y014260D01*
X059000Y016740D02*
X059000Y017260D01*
X058000Y017260D02*
X058000Y016740D01*
X057000Y016740D02*
X057000Y017260D01*
X056000Y017260D02*
X056000Y016740D01*
X055000Y016740D02*
X055000Y017260D01*
X054000Y017260D02*
X054000Y016740D01*
X053000Y016740D02*
X053000Y017260D01*
X052000Y017260D02*
X052000Y016740D01*
X051000Y016740D02*
X051000Y017260D01*
X050000Y017260D02*
X050000Y016740D01*
X049000Y016740D02*
X049000Y017260D01*
X048000Y017260D02*
X048000Y016740D01*
X047000Y016740D02*
X047000Y017260D01*
X046000Y017260D02*
X046000Y016740D01*
D12*
X013500Y037500D03*
X016500Y037500D03*
X013500Y036500D03*
X016500Y036500D03*
X013500Y035500D03*
X016500Y035500D03*
X013500Y034500D03*
X016500Y034500D03*
X013500Y033500D03*
X016500Y033500D03*
X013500Y032500D03*
X016500Y032500D03*
X013500Y031500D03*
X016500Y031500D03*
X013500Y027500D03*
X016500Y027500D03*
X013500Y026500D03*
X016500Y026500D03*
X013500Y025500D03*
X016500Y025500D03*
X013500Y024500D03*
X016500Y024500D03*
X013500Y023500D03*
X016500Y023500D03*
X013500Y022500D03*
X016500Y022500D03*
X013500Y021500D03*
X016500Y021500D03*
X013500Y017500D03*
X016500Y017500D03*
X013500Y016500D03*
X016500Y016500D03*
X013500Y015500D03*
X016500Y015500D03*
X013500Y014500D03*
X016500Y014500D03*
X013500Y013500D03*
X016500Y013500D03*
X013500Y012500D03*
X016500Y012500D03*
X013500Y011500D03*
X016500Y011500D03*
X007500Y034500D03*
X007500Y033500D03*
X007500Y024500D03*
X007500Y023500D03*
X007500Y014500D03*
X007500Y013500D03*
X032500Y037500D03*
X035500Y037500D03*
X032500Y036500D03*
X035500Y036500D03*
X032500Y035500D03*
X035500Y035500D03*
X032500Y034500D03*
X035500Y034500D03*
X032500Y033500D03*
X035500Y033500D03*
X032500Y032500D03*
X035500Y032500D03*
X032500Y031500D03*
X035500Y031500D03*
X032500Y027500D03*
X035500Y027500D03*
X032500Y026500D03*
X035500Y026500D03*
X032500Y025500D03*
X035500Y025500D03*
X032500Y024500D03*
X035500Y024500D03*
X032500Y023500D03*
X035500Y023500D03*
X032500Y022500D03*
X035500Y022500D03*
X032500Y021500D03*
X035500Y021500D03*
X032500Y017500D03*
X035500Y017500D03*
X032500Y016500D03*
X035500Y016500D03*
X032500Y015500D03*
X035500Y015500D03*
X032500Y014500D03*
X035500Y014500D03*
X032500Y013500D03*
X035500Y013500D03*
X032500Y012500D03*
X035500Y012500D03*
X032500Y011500D03*
X035500Y011500D03*
X026500Y034500D03*
X026500Y033500D03*
X026500Y024500D03*
X026500Y023500D03*
X025500Y014000D03*
X026500Y014000D03*
X051500Y037500D03*
X054500Y037500D03*
X051500Y036500D03*
X054500Y036500D03*
X051500Y035500D03*
X054500Y035500D03*
X051500Y034500D03*
X054500Y034500D03*
X051500Y033500D03*
X054500Y033500D03*
X051500Y032500D03*
X054500Y032500D03*
X051500Y031500D03*
X054500Y031500D03*
X051500Y027500D03*
X054500Y027500D03*
X051500Y026500D03*
X054500Y026500D03*
X051500Y025500D03*
X054500Y025500D03*
X051500Y024500D03*
X054500Y024500D03*
X051500Y023500D03*
X054500Y023500D03*
X051500Y022500D03*
X054500Y022500D03*
X051500Y021500D03*
X054500Y021500D03*
X070500Y037500D03*
X073500Y037500D03*
X070500Y036500D03*
X073500Y036500D03*
X070500Y035500D03*
X073500Y035500D03*
X070500Y034500D03*
X073500Y034500D03*
X070500Y033500D03*
X073500Y033500D03*
X070500Y032500D03*
X073500Y032500D03*
X070500Y031500D03*
X073500Y031500D03*
X070500Y027500D03*
X073500Y027500D03*
X070500Y026500D03*
X073500Y026500D03*
X070500Y025500D03*
X073500Y025500D03*
X070500Y024500D03*
X073500Y024500D03*
X070500Y023500D03*
X073500Y023500D03*
X070500Y022500D03*
X073500Y022500D03*
X070500Y021500D03*
X073500Y021500D03*
X044500Y034000D03*
X045500Y034000D03*
X044500Y024000D03*
X045500Y024000D03*
X064500Y034500D03*
X064500Y033500D03*
X064500Y024500D03*
X064500Y023500D03*
X052000Y012500D03*
X053000Y012500D03*
X068000Y017000D03*
X069000Y017000D03*
X062500Y017000D03*
X063500Y017000D03*
X040500Y016500D03*
X040500Y013500D03*
D13*
X018797Y038000D02*
X018203Y038000D01*
X018203Y037000D02*
X018797Y037000D01*
X018797Y036000D02*
X018203Y036000D01*
X018203Y035000D02*
X018797Y035000D01*
X018797Y033000D02*
X018203Y033000D01*
X018203Y032000D02*
X018797Y032000D01*
X018797Y031000D02*
X018203Y031000D01*
X018203Y030000D02*
X018797Y030000D01*
X018797Y028000D02*
X018203Y028000D01*
X018203Y027000D02*
X018797Y027000D01*
X018797Y026000D02*
X018203Y026000D01*
X018203Y025000D02*
X018797Y025000D01*
X018797Y023000D02*
X018203Y023000D01*
X018203Y022000D02*
X018797Y022000D01*
X018797Y021000D02*
X018203Y021000D01*
X018203Y020000D02*
X018797Y020000D01*
X018797Y018000D02*
X018203Y018000D01*
X018203Y017000D02*
X018797Y017000D01*
X018797Y016000D02*
X018203Y016000D01*
X018203Y015000D02*
X018797Y015000D01*
X018797Y013000D02*
X018203Y013000D01*
X018203Y012000D02*
X018797Y012000D01*
X018797Y011000D02*
X018203Y011000D01*
X018203Y010000D02*
X018797Y010000D01*
X037203Y038000D02*
X037797Y038000D01*
X037797Y037000D02*
X037203Y037000D01*
X037203Y036000D02*
X037797Y036000D01*
X037797Y035000D02*
X037203Y035000D01*
X037203Y033000D02*
X037797Y033000D01*
X037797Y032000D02*
X037203Y032000D01*
X037203Y031000D02*
X037797Y031000D01*
X037797Y030000D02*
X037203Y030000D01*
X037203Y028000D02*
X037797Y028000D01*
X037797Y027000D02*
X037203Y027000D01*
X037203Y026000D02*
X037797Y026000D01*
X037797Y025000D02*
X037203Y025000D01*
X037203Y023000D02*
X037797Y023000D01*
X037797Y022000D02*
X037203Y022000D01*
X037203Y021000D02*
X037797Y021000D01*
X037797Y020000D02*
X037203Y020000D01*
X037203Y018000D02*
X037797Y018000D01*
X037797Y017000D02*
X037203Y017000D01*
X037203Y016000D02*
X037797Y016000D01*
X037797Y015000D02*
X037203Y015000D01*
X037203Y013000D02*
X037797Y013000D01*
X037797Y012000D02*
X037203Y012000D01*
X037203Y011000D02*
X037797Y011000D01*
X037797Y010000D02*
X037203Y010000D01*
X056203Y038000D02*
X056797Y038000D01*
X056797Y037000D02*
X056203Y037000D01*
X056203Y036000D02*
X056797Y036000D01*
X056797Y035000D02*
X056203Y035000D01*
X056203Y033000D02*
X056797Y033000D01*
X056797Y032000D02*
X056203Y032000D01*
X056203Y031000D02*
X056797Y031000D01*
X056797Y030000D02*
X056203Y030000D01*
X056203Y028000D02*
X056797Y028000D01*
X056797Y027000D02*
X056203Y027000D01*
X056203Y026000D02*
X056797Y026000D01*
X056797Y025000D02*
X056203Y025000D01*
X056203Y023000D02*
X056797Y023000D01*
X056797Y022000D02*
X056203Y022000D01*
X056203Y021000D02*
X056797Y021000D01*
X056797Y020000D02*
X056203Y020000D01*
X075203Y038000D02*
X075797Y038000D01*
X075797Y037000D02*
X075203Y037000D01*
X075203Y036000D02*
X075797Y036000D01*
X075797Y035000D02*
X075203Y035000D01*
X075203Y033000D02*
X075797Y033000D01*
X075797Y032000D02*
X075203Y032000D01*
X075203Y031000D02*
X075797Y031000D01*
X075797Y030000D02*
X075203Y030000D01*
X075203Y028000D02*
X075797Y028000D01*
X075797Y027000D02*
X075203Y027000D01*
X075203Y026000D02*
X075797Y026000D01*
X075797Y025000D02*
X075203Y025000D01*
X075203Y023000D02*
X075797Y023000D01*
X075797Y022000D02*
X075203Y022000D01*
X075203Y021000D02*
X075797Y021000D01*
X075797Y020000D02*
X075203Y020000D01*
D14*
X059500Y011500D03*
D15*
X059500Y010500D03*
X058500Y011500D03*
X058500Y010500D03*
X057500Y011500D03*
X057500Y010500D03*
X046500Y010000D03*
X047500Y010000D03*
X048500Y010000D03*
X049500Y010000D03*
X050500Y010000D03*
X046500Y011000D03*
X047500Y011000D03*
X048500Y011000D03*
X049500Y011000D03*
X050500Y011000D03*
D16*
X073280Y008894D02*
X073280Y008106D01*
X075681Y008106D02*
X075681Y008894D01*
X074894Y010390D02*
X074106Y010390D01*
D17*
X064500Y014670D02*
X064500Y015330D01*
X063500Y015330D02*
X063500Y014670D01*
X062500Y014670D02*
X062500Y015330D01*
X070000Y015330D02*
X070000Y014670D01*
X069000Y014670D02*
X069000Y015330D01*
X068000Y015330D02*
X068000Y014670D01*
D18*
X074700Y012750D02*
X075300Y012750D01*
X075300Y014250D02*
X074700Y014250D01*
X074700Y015750D02*
X075300Y015750D01*
X075300Y017250D02*
X074700Y017250D01*
X043890Y017080D02*
X043890Y016480D01*
X042110Y016480D02*
X042110Y017080D01*
X043890Y014520D02*
X043890Y013920D01*
X042110Y013920D02*
X042110Y014520D01*
D19*
X071500Y018500D03*
X066000Y018500D03*
X008000Y029000D03*
X008000Y019000D03*
X027000Y029000D03*
X027000Y019000D03*
X014000Y029000D03*
X015000Y019500D03*
X034500Y029500D03*
X034500Y019500D03*
X046000Y029000D03*
X065000Y029000D03*
X053000Y029500D03*
X072500Y029500D03*
X033500Y009500D03*
D20*
X071500Y017500D03*
X066000Y017500D03*
X007000Y029000D03*
X007000Y019000D03*
X026000Y029000D03*
X026000Y019000D03*
X014000Y030000D03*
X014000Y019500D03*
X033500Y029500D03*
X033500Y019500D03*
X045000Y029000D03*
X064000Y029000D03*
X052000Y029500D03*
X071500Y029500D03*
X033500Y008500D03*
D21*
X066000Y030500D02*
X066500Y030500D01*
X071500Y018500D02*
X072500Y019500D01*
X075000Y019500D01*
X075500Y020000D01*
X052000Y017000D02*
X052000Y018000D01*
X053000Y019000D01*
X055500Y019000D01*
X056500Y020000D01*
X009000Y030500D02*
X009500Y030500D01*
X011000Y029000D01*
X014000Y029000D01*
X015500Y029000D01*
X016500Y030000D01*
X018500Y030000D01*
X015000Y019500D02*
X015500Y020000D01*
X018500Y020000D01*
X066500Y030500D02*
X068500Y028500D01*
X072500Y028500D01*
X073000Y029000D01*
X074000Y030000D01*
X075500Y030000D01*
X073000Y029000D02*
X072500Y029500D01*
D22*
X036000Y030000D03*
X056500Y029000D03*
X003500Y028500D03*
D23*
X015000Y031500D03*
X015000Y032500D03*
D24*
X009000Y031500D02*
X008500Y031500D01*
X008000Y032000D01*
X007000Y032000D01*
X006500Y031500D01*
X005500Y031500D01*
X005500Y032500D02*
X009000Y032500D01*
X005500Y033500D02*
X006500Y033500D01*
X007000Y033000D01*
X008000Y033000D01*
X008500Y033500D01*
X009000Y033500D01*
X009000Y021500D02*
X008500Y021500D01*
X008000Y022000D01*
X007000Y022000D01*
X006500Y021500D01*
X005500Y021500D01*
X009000Y023500D02*
X008500Y023500D01*
X008000Y023000D01*
X007000Y023000D01*
X006500Y023500D01*
X005500Y023500D01*
X005500Y022500D02*
X009000Y022500D01*
X009000Y011500D02*
X008500Y011500D01*
X008000Y012000D01*
X007000Y012000D01*
X006500Y011500D01*
X005500Y011500D01*
X009000Y013500D02*
X008500Y013500D01*
X008000Y013000D01*
X007000Y013000D01*
X006500Y013500D01*
X005500Y013500D01*
X005500Y012500D02*
X009000Y012500D01*
X024500Y031500D02*
X025000Y031500D01*
X025500Y032000D01*
X027000Y032000D01*
X027500Y031500D01*
X028000Y031500D01*
X028000Y032500D02*
X024500Y032500D01*
X024500Y033500D02*
X025000Y033500D01*
X025500Y033000D01*
X027000Y033000D01*
X027500Y033500D01*
X028000Y033500D01*
X028000Y021500D02*
X027500Y021500D01*
X027000Y022000D01*
X025500Y022000D01*
X025000Y021500D01*
X024500Y021500D01*
X024500Y023500D02*
X025000Y023500D01*
X025500Y023000D01*
X027000Y023000D01*
X027500Y023500D01*
X028000Y023500D01*
X028000Y022500D02*
X024500Y022500D01*
X024500Y011500D02*
X025000Y011500D01*
X025500Y012000D01*
X027000Y012000D01*
X027500Y011500D01*
X028000Y011500D01*
X024500Y013500D02*
X025000Y013500D01*
X025500Y013000D01*
X027500Y013000D01*
X028000Y013500D01*
X028000Y012500D02*
X024500Y012500D01*
X021500Y030500D02*
X023000Y030500D01*
X023500Y031000D01*
X023500Y035500D01*
X024000Y036000D01*
X026000Y036000D01*
X027500Y034500D01*
X028000Y034500D01*
X021500Y031500D02*
X022500Y031500D01*
X023000Y032000D01*
X023000Y036000D01*
X023500Y036500D01*
X026500Y036500D01*
X027500Y035500D01*
X028000Y035500D01*
X021500Y032500D02*
X022000Y032500D01*
X022500Y033000D01*
X022500Y036500D01*
X023000Y037000D01*
X027000Y037000D01*
X027500Y036500D01*
X028000Y036500D01*
X021500Y033500D02*
X021000Y033500D01*
X020500Y034000D01*
X020500Y036000D01*
X021000Y036500D01*
X022000Y036500D01*
X023000Y037500D01*
X028000Y037500D01*
X028000Y027500D02*
X021000Y027500D01*
X020500Y027000D01*
X020500Y024000D01*
X021000Y023500D01*
X021500Y023500D01*
X021500Y022500D02*
X022000Y022500D01*
X022500Y023000D01*
X022500Y025500D01*
X024000Y027000D01*
X027000Y027000D01*
X027500Y026500D01*
X028000Y026500D01*
X024000Y026500D02*
X023000Y025500D01*
X023000Y022000D01*
X022500Y021500D01*
X021500Y021500D01*
X024000Y026500D02*
X026500Y026500D01*
X027500Y025500D01*
X028000Y025500D01*
X021500Y020500D02*
X023000Y020500D01*
X023500Y021000D01*
X023500Y025500D01*
X024000Y026000D01*
X026000Y026000D01*
X028000Y024500D02*
X027500Y024500D01*
X026000Y026000D01*
X021500Y013500D02*
X021000Y013500D01*
X020500Y014000D01*
X020500Y017000D01*
X021000Y017500D01*
X028000Y017500D01*
X021500Y012500D02*
X022000Y012500D01*
X022500Y013000D01*
X022500Y015500D01*
X024000Y017000D01*
X027000Y017000D01*
X027500Y016500D01*
X028000Y016500D01*
X021500Y011500D02*
X022500Y011500D01*
X023000Y012000D01*
X023000Y015500D01*
X024000Y016500D01*
X026500Y016500D01*
X028000Y015500D02*
X027500Y015500D01*
X026500Y016500D01*
X021500Y010500D02*
X023000Y010500D01*
X023500Y011000D01*
X023500Y015500D01*
X024000Y016000D01*
X026000Y016000D01*
X028000Y014500D02*
X027500Y014500D01*
X026000Y016000D01*
X002500Y033500D02*
X002000Y033500D01*
X001500Y034000D01*
X001500Y037000D01*
X002000Y037500D01*
X009000Y037500D01*
X009000Y036500D02*
X008500Y036500D01*
X008000Y037000D01*
X005000Y037000D01*
X003500Y035500D01*
X003500Y033000D01*
X003000Y032500D01*
X002500Y032500D01*
X002500Y031500D02*
X003500Y031500D01*
X004000Y032000D01*
X004000Y035500D01*
X005000Y036500D01*
X007500Y036500D01*
X008500Y035500D01*
X009000Y035500D01*
X009000Y034500D02*
X008500Y034500D01*
X007000Y036000D01*
X005000Y036000D01*
X004500Y035500D01*
X004500Y031000D01*
X004000Y030500D01*
X002500Y030500D01*
X002500Y023500D02*
X002000Y023500D01*
X001500Y024000D01*
X001500Y027000D01*
X002000Y027500D01*
X009000Y027500D01*
X009000Y026500D02*
X008500Y026500D01*
X008000Y027000D01*
X005000Y027000D01*
X003500Y025500D01*
X003500Y023000D01*
X003000Y022500D01*
X002500Y022500D01*
X009000Y025500D02*
X008500Y025500D01*
X007500Y026500D01*
X005000Y026500D01*
X004000Y025500D01*
X004000Y022000D01*
X003500Y021500D01*
X002500Y021500D01*
X002500Y020500D02*
X004000Y020500D01*
X004500Y021000D01*
X004500Y025500D01*
X005000Y026000D01*
X007000Y026000D01*
X008500Y024500D01*
X009000Y024500D01*
X009000Y017500D02*
X002000Y017500D01*
X001500Y017000D01*
X001500Y014000D01*
X002000Y013500D01*
X002500Y013500D01*
X009000Y016500D02*
X008500Y016500D01*
X008000Y017000D01*
X005000Y017000D01*
X003500Y015500D01*
X003500Y013000D01*
X003000Y012500D01*
X002500Y012500D01*
X002500Y011500D02*
X003500Y011500D01*
X004000Y012000D01*
X004000Y015500D01*
X005000Y016500D01*
X007500Y016500D01*
X008500Y015500D01*
X009000Y015500D01*
X009000Y014500D02*
X008500Y014500D01*
X007000Y016000D01*
X005000Y016000D01*
X004500Y015500D01*
X004500Y011000D01*
X004000Y010500D01*
X002500Y010500D01*
X047000Y031500D02*
X046500Y031500D01*
X046000Y032000D01*
X044500Y032000D01*
X044000Y031500D01*
X043500Y031500D01*
X047000Y033500D02*
X046500Y033500D01*
X046000Y033000D01*
X044500Y033000D01*
X044000Y033500D01*
X043500Y033500D01*
X043500Y032500D02*
X047000Y032500D01*
X044000Y021500D02*
X043500Y021500D01*
X047000Y021500D02*
X046500Y021500D01*
X046000Y022000D01*
X044500Y022000D01*
X044000Y021500D01*
X047000Y023500D02*
X046500Y023500D01*
X046000Y023000D01*
X044500Y023000D01*
X044000Y023500D01*
X043500Y023500D01*
X043500Y022500D02*
X047000Y022500D01*
X047000Y037500D02*
X040000Y037500D01*
X039500Y037000D01*
X039500Y034000D01*
X040000Y033500D01*
X040500Y033500D01*
X040500Y032500D02*
X041000Y032500D01*
X041500Y033000D01*
X041500Y035500D01*
X043000Y037000D01*
X046000Y037000D01*
X046500Y036500D01*
X047000Y036500D01*
X040500Y031500D02*
X041500Y031500D01*
X042000Y032000D01*
X042000Y035500D01*
X047000Y035500D02*
X046500Y035500D01*
X045500Y036500D01*
X043000Y036500D01*
X042000Y035500D01*
X040500Y030500D02*
X042000Y030500D01*
X042500Y031000D01*
X042500Y035500D01*
X043000Y036000D01*
X045000Y036000D01*
X046500Y034500D01*
X047000Y034500D01*
X047000Y027500D02*
X040000Y027500D01*
X039500Y027000D01*
X039500Y024000D01*
X040000Y023500D01*
X040500Y023500D01*
X040500Y022500D02*
X041000Y022500D01*
X041500Y023000D01*
X041500Y025500D01*
X043000Y027000D01*
X046000Y027000D01*
X046500Y026500D01*
X047000Y026500D01*
X040500Y021500D02*
X041500Y021500D01*
X042000Y022000D01*
X042000Y025500D01*
X043000Y026500D01*
X045500Y026500D01*
X046500Y025500D01*
X047000Y025500D01*
X047000Y024500D02*
X046500Y024500D01*
X045000Y026000D01*
X043000Y026000D01*
X042500Y025500D01*
X042500Y021000D01*
X042000Y020500D01*
X040500Y020500D01*
X056500Y029000D02*
X053500Y029000D01*
X053000Y028500D01*
X053000Y020000D01*
X052500Y019500D01*
X051500Y019500D01*
X066000Y031500D02*
X065500Y031500D01*
X065000Y032000D01*
X063500Y032000D01*
X063000Y031500D01*
X062500Y031500D01*
X066000Y033500D02*
X065500Y033500D01*
X065000Y033000D01*
X063500Y033000D01*
X063000Y033500D01*
X062500Y033500D01*
X062500Y032500D02*
X066000Y032500D01*
X066000Y021500D02*
X065500Y021500D01*
X065000Y022000D01*
X063500Y022000D01*
X063000Y021500D01*
X062500Y021500D01*
X066000Y023500D02*
X065500Y023500D01*
X065000Y023000D01*
X063500Y023000D01*
X063000Y023500D01*
X062500Y023500D01*
X062500Y022500D02*
X066000Y022500D01*
X066000Y037500D02*
X059000Y037500D01*
X058500Y037000D01*
X058500Y034000D01*
X059000Y033500D01*
X059500Y033500D01*
X059500Y032500D02*
X060000Y032500D01*
X060500Y033000D01*
X060500Y035500D01*
X062000Y037000D01*
X065000Y037000D01*
X065500Y036500D01*
X066000Y036500D01*
X059500Y031500D02*
X060500Y031500D01*
X061000Y032000D01*
X061000Y035500D01*
X062000Y036500D01*
X064500Y036500D01*
X065500Y035500D01*
X066000Y035500D01*
X066000Y034500D02*
X065500Y034500D01*
X064000Y036000D01*
X062000Y036000D01*
X061500Y035500D01*
X061500Y031000D01*
X061000Y030500D01*
X059500Y030500D01*
X066000Y027500D02*
X059000Y027500D01*
X058500Y027000D01*
X058500Y024000D01*
X059000Y023500D01*
X059500Y023500D01*
X059500Y022500D02*
X060000Y022500D01*
X060500Y023000D01*
X060500Y025500D01*
X062000Y027000D01*
X065000Y027000D01*
X065500Y026500D01*
X066000Y026500D01*
X059500Y021500D02*
X060500Y021500D01*
X061000Y022000D01*
X061000Y025500D01*
X062000Y026500D01*
X066000Y025500D02*
X065500Y025500D01*
X064500Y026500D01*
X062000Y026500D01*
X066000Y024500D02*
X065500Y024500D01*
X064000Y026000D01*
X062000Y026000D01*
X061500Y025500D01*
X061500Y021000D01*
X061000Y020500D01*
X059500Y020500D01*
X056000Y017000D02*
X056000Y016000D01*
X056500Y015500D01*
X059500Y015500D01*
X060500Y014500D01*
X060500Y013000D01*
X059500Y012000D01*
X059500Y011500D01*
X055000Y017000D02*
X055000Y015500D01*
X055500Y015000D01*
X059500Y015000D01*
X060000Y014500D01*
X060000Y013000D01*
X059500Y012500D01*
X059000Y012500D01*
X058500Y012000D01*
X058500Y011500D01*
X057500Y011500D02*
X052500Y011500D01*
X051500Y010500D01*
X051500Y007500D01*
X051000Y007000D01*
X040500Y007000D01*
X040000Y007500D01*
X040000Y012000D01*
X040500Y012500D01*
X040500Y016500D02*
X040500Y016000D01*
X039500Y015000D01*
X039500Y013500D01*
X040500Y012500D01*
X043000Y012500D01*
X044000Y013500D01*
X044000Y014110D01*
X043890Y014220D01*
X046000Y014000D02*
X046000Y013500D01*
X045500Y013000D01*
X044500Y013000D01*
X044000Y013500D01*
X057000Y017000D02*
X057000Y016500D01*
X057500Y016000D01*
X059500Y016000D01*
X061000Y014500D01*
X061000Y010000D01*
X060500Y009500D01*
X059000Y009500D01*
X058500Y010000D01*
X058500Y010500D01*
X051000Y017000D02*
X051000Y018500D01*
X050500Y019000D01*
X049000Y019000D01*
X048500Y019500D01*
X048500Y038000D01*
X048000Y038500D01*
X041000Y038500D01*
X040500Y038000D01*
X062500Y029500D02*
X062500Y029000D01*
X062000Y028500D01*
X058500Y028500D01*
X058000Y029000D01*
X062500Y019500D02*
X062500Y019000D01*
X062000Y018500D01*
X058500Y018500D01*
X058000Y019000D01*
X058000Y028000D01*
X058500Y028500D01*
X043500Y019500D02*
X048000Y019500D01*
X050000Y017500D01*
X050000Y017000D01*
X058000Y029000D02*
X058000Y038500D01*
X057500Y039000D01*
X039500Y039000D01*
X039000Y038500D01*
X039000Y029500D01*
X040000Y028500D01*
X043500Y019500D02*
X047500Y019500D01*
X048000Y020000D01*
X048000Y028000D01*
X043500Y029500D02*
X043500Y029000D01*
X043000Y028500D01*
X040000Y028500D01*
X043500Y029000D02*
X044500Y028000D01*
X046000Y028000D01*
X046500Y028500D01*
X047500Y028500D01*
X048000Y028000D01*
X049000Y017500D02*
X049000Y017000D01*
X029500Y019500D02*
X029500Y038000D01*
X049000Y017500D02*
X047500Y019000D01*
X044500Y019000D01*
X021500Y037000D02*
X022500Y038000D01*
X027000Y038000D01*
X027500Y038500D01*
X029000Y038500D01*
X029500Y038000D01*
X029500Y019500D02*
X030500Y018500D01*
X036000Y018500D01*
X036500Y019000D01*
X044500Y019000D02*
X044000Y018500D01*
X039500Y018500D01*
X039000Y019000D01*
X036500Y019000D01*
X048000Y017000D02*
X048000Y017500D01*
X047000Y018500D01*
X045500Y018500D01*
X002000Y008000D02*
X001000Y009000D01*
X038500Y008000D02*
X039000Y008500D01*
X039000Y016500D01*
X001000Y009000D02*
X001000Y027500D01*
X001500Y028000D01*
X003000Y028000D01*
X003500Y028500D01*
X038500Y008000D02*
X035000Y008000D01*
X034500Y007500D01*
X032000Y007500D01*
X031500Y008000D01*
X002000Y008000D01*
X045000Y018000D02*
X045500Y018500D01*
X039000Y016500D02*
X040500Y018000D01*
X045000Y018000D01*
X024500Y029500D02*
X024500Y029000D01*
X023500Y028000D01*
X021000Y028000D01*
X020000Y027000D01*
X024000Y018500D02*
X024500Y019000D01*
X024500Y019500D01*
X019500Y019500D02*
X020500Y018500D01*
X024000Y018500D01*
X020000Y027000D02*
X020000Y020000D01*
X019500Y019500D01*
X024500Y009500D02*
X024500Y009000D01*
X024000Y008500D01*
X020500Y008500D01*
X020000Y009000D01*
X020000Y018000D01*
X020500Y018500D01*
X005500Y009500D02*
X006000Y009500D01*
X006500Y009000D01*
X020000Y009000D01*
X003500Y018500D02*
X005000Y018500D01*
X005500Y019000D01*
X005500Y019500D01*
X006000Y019500D01*
X006500Y020000D01*
X008000Y020000D01*
X008500Y019500D01*
X019500Y019500D02*
X019000Y019000D01*
X016500Y019000D01*
X016000Y018500D01*
X011500Y018500D01*
X010500Y019500D01*
X008500Y019500D01*
X046500Y010000D02*
X046500Y011000D01*
X046500Y012000D01*
X047000Y012500D01*
X047000Y014000D01*
X047500Y010000D02*
X047500Y011000D01*
X047500Y012000D01*
X048000Y012500D01*
X048000Y014000D01*
X048500Y010000D02*
X048500Y011000D01*
X048500Y012000D01*
X049000Y012500D01*
X050500Y012500D01*
X051000Y013000D01*
X051000Y014000D01*
D25*
X051500Y019500D03*
X040500Y038000D03*
X021500Y037000D03*
X003500Y018500D03*
D26*
X073280Y008500D02*
X073000Y008500D01*
X072500Y009000D01*
X072500Y011000D01*
X073000Y011500D01*
X076500Y011500D01*
X077000Y012000D01*
X077000Y013500D01*
X076500Y014000D01*
X075250Y014000D01*
X075000Y014250D01*
M02*
