%
M48
M72
T01C0.0236
T02C0.0315
T03C0.0320
T04C0.0394
T05C0.0400
T06C0.0440
T07C0.1300
%
T01
X15000Y31500
X15000Y32500
X51500Y19500
X40500Y38000
X21500Y37000
X3500Y18500
T02
X36000Y30000
X56500Y29000
X3500Y28500
T03
X2500Y35500
X2500Y34500
X2500Y29500
X5500Y29500
X2500Y33500
X2500Y32500
X2500Y30500
X2500Y31500
X5500Y30500
X5500Y31500
X5500Y32500
X5500Y33500
X5500Y34500
X5500Y35500
X2500Y25500
X2500Y24500
X2500Y19500
X5500Y19500
X2500Y23500
X2500Y22500
X2500Y20500
X2500Y21500
X5500Y20500
X5500Y21500
X5500Y22500
X5500Y23500
X5500Y24500
X5500Y25500
X2500Y15500
X2500Y14500
X2500Y9500
X5500Y9500
X2500Y13500
X2500Y12500
X2500Y10500
X2500Y11500
X5500Y10500
X5500Y11500
X5500Y12500
X5500Y13500
X5500Y14500
X5500Y15500
X9000Y37500
X9000Y36500
X9000Y31500
X9000Y30500
X9000Y35500
X9000Y34500
X9000Y32500
X9000Y33500
X12000Y30500
X12000Y31500
X12000Y32500
X12000Y33500
X12000Y34500
X12000Y35500
X12000Y36500
X12000Y37500
X9000Y27500
X9000Y26500
X9000Y21500
X9000Y20500
X9000Y25500
X9000Y24500
X9000Y22500
X9000Y23500
X12000Y20500
X12000Y21500
X12000Y22500
X12000Y23500
X12000Y24500
X12000Y25500
X12000Y26500
X12000Y27500
X9000Y17500
X9000Y16500
X9000Y11500
X9000Y10500
X9000Y15500
X9000Y14500
X9000Y12500
X9000Y13500
X12000Y10500
X12000Y11500
X12000Y12500
X12000Y13500
X12000Y14500
X12000Y15500
X12000Y16500
X12000Y17500
X13500Y37500
X16500Y37500
X13500Y36500
X16500Y36500
X13500Y35500
X16500Y35500
X13500Y34500
X16500Y34500
X13500Y33500
X16500Y33500
X13500Y32500
X16500Y32500
X13500Y31500
X16500Y31500
X13500Y27500
X16500Y27500
X13500Y26500
X16500Y26500
X13500Y25500
X16500Y25500
X13500Y24500
X16500Y24500
X13500Y23500
X16500Y23500
X13500Y22500
X16500Y22500
X13500Y21500
X16500Y21500
X13500Y17500
X16500Y17500
X13500Y16500
X16500Y16500
X13500Y15500
X16500Y15500
X13500Y14500
X16500Y14500
X13500Y13500
X16500Y13500
X13500Y12500
X16500Y12500
X13500Y11500
X16500Y11500
X7500Y34500
X7500Y33500
X7500Y24500
X7500Y23500
X7500Y14500
X7500Y13500
X21500Y35500
X21500Y34500
X21500Y29500
X24500Y29500
X21500Y33500
X21500Y32500
X21500Y30500
X21500Y31500
X24500Y30500
X24500Y31500
X24500Y32500
X24500Y33500
X24500Y34500
X24500Y35500
X21500Y25500
X21500Y24500
X21500Y19500
X24500Y19500
X21500Y23500
X21500Y22500
X21500Y20500
X21500Y21500
X24500Y20500
X24500Y21500
X24500Y22500
X24500Y23500
X24500Y24500
X24500Y25500
X21500Y15500
X21500Y14500
X21500Y9500
X24500Y9500
X21500Y13500
X21500Y12500
X21500Y10500
X21500Y11500
X24500Y10500
X24500Y11500
X24500Y12500
X24500Y13500
X24500Y14500
X24500Y15500
X28000Y37500
X28000Y36500
X28000Y31500
X28000Y30500
X28000Y35500
X28000Y34500
X28000Y32500
X28000Y33500
X31000Y30500
X31000Y31500
X31000Y32500
X31000Y33500
X31000Y34500
X31000Y35500
X31000Y36500
X31000Y37500
X28000Y27500
X28000Y26500
X28000Y21500
X28000Y20500
X28000Y25500
X28000Y24500
X28000Y22500
X28000Y23500
X31000Y20500
X31000Y21500
X31000Y22500
X31000Y23500
X31000Y24500
X31000Y25500
X31000Y26500
X31000Y27500
X28000Y17500
X28000Y16500
X28000Y11500
X28000Y10500
X28000Y15500
X28000Y14500
X28000Y12500
X28000Y13500
X31000Y10500
X31000Y11500
X31000Y12500
X31000Y13500
X31000Y14500
X31000Y15500
X31000Y16500
X31000Y17500
X32500Y37500
X35500Y37500
X32500Y36500
X35500Y36500
X32500Y35500
X35500Y35500
X32500Y34500
X35500Y34500
X32500Y33500
X35500Y33500
X32500Y32500
X35500Y32500
X32500Y31500
X35500Y31500
X32500Y27500
X35500Y27500
X32500Y26500
X35500Y26500
X32500Y25500
X35500Y25500
X32500Y24500
X35500Y24500
X32500Y23500
X35500Y23500
X32500Y22500
X35500Y22500
X32500Y21500
X35500Y21500
X32500Y17500
X35500Y17500
X32500Y16500
X35500Y16500
X32500Y15500
X35500Y15500
X32500Y14500
X35500Y14500
X32500Y13500
X35500Y13500
X32500Y12500
X35500Y12500
X32500Y11500
X35500Y11500
X26500Y34500
X26500Y33500
X26500Y24500
X26500Y23500
X25500Y14000
X26500Y14000
X40500Y35500
X40500Y34500
X40500Y29500
X43500Y29500
X40500Y33500
X40500Y32500
X40500Y30500
X40500Y31500
X43500Y30500
X43500Y31500
X43500Y32500
X43500Y33500
X43500Y34500
X43500Y35500
X40500Y25500
X40500Y24500
X40500Y19500
X43500Y19500
X40500Y23500
X40500Y22500
X40500Y20500
X40500Y21500
X43500Y20500
X43500Y21500
X43500Y22500
X43500Y23500
X43500Y24500
X43500Y25500
X47000Y37500
X47000Y36500
X47000Y31500
X47000Y30500
X47000Y35500
X47000Y34500
X47000Y32500
X47000Y33500
X50000Y30500
X50000Y31500
X50000Y32500
X50000Y33500
X50000Y34500
X50000Y35500
X50000Y36500
X50000Y37500
X47000Y27500
X47000Y26500
X47000Y21500
X47000Y20500
X47000Y25500
X47000Y24500
X47000Y22500
X47000Y23500
X50000Y20500
X50000Y21500
X50000Y22500
X50000Y23500
X50000Y24500
X50000Y25500
X50000Y26500
X50000Y27500
X51500Y37500
X54500Y37500
X51500Y36500
X54500Y36500
X51500Y35500
X54500Y35500
X51500Y34500
X54500Y34500
X51500Y33500
X54500Y33500
X51500Y32500
X54500Y32500
X51500Y31500
X54500Y31500
X51500Y27500
X54500Y27500
X51500Y26500
X54500Y26500
X51500Y25500
X54500Y25500
X51500Y24500
X54500Y24500
X51500Y23500
X54500Y23500
X51500Y22500
X54500Y22500
X51500Y21500
X54500Y21500
X59500Y35500
X59500Y34500
X59500Y29500
X62500Y29500
X59500Y33500
X59500Y32500
X59500Y30500
X59500Y31500
X62500Y30500
X62500Y31500
X62500Y32500
X62500Y33500
X62500Y34500
X62500Y35500
X59500Y25500
X59500Y24500
X59500Y19500
X62500Y19500
X59500Y23500
X59500Y22500
X59500Y20500
X59500Y21500
X62500Y20500
X62500Y21500
X62500Y22500
X62500Y23500
X62500Y24500
X62500Y25500
X66000Y37500
X66000Y36500
X66000Y31500
X66000Y30500
X66000Y35500
X66000Y34500
X66000Y32500
X66000Y33500
X69000Y30500
X69000Y31500
X69000Y32500
X69000Y33500
X69000Y34500
X69000Y35500
X69000Y36500
X69000Y37500
X66000Y27500
X66000Y26500
X66000Y21500
X66000Y20500
X66000Y25500
X66000Y24500
X66000Y22500
X66000Y23500
X69000Y20500
X69000Y21500
X69000Y22500
X69000Y23500
X69000Y24500
X69000Y25500
X69000Y26500
X69000Y27500
X70500Y37500
X73500Y37500
X70500Y36500
X73500Y36500
X70500Y35500
X73500Y35500
X70500Y34500
X73500Y34500
X70500Y33500
X73500Y33500
X70500Y32500
X73500Y32500
X70500Y31500
X73500Y31500
X70500Y27500
X73500Y27500
X70500Y26500
X73500Y26500
X70500Y25500
X73500Y25500
X70500Y24500
X73500Y24500
X70500Y23500
X73500Y23500
X70500Y22500
X73500Y22500
X70500Y21500
X73500Y21500
X44500Y34000
X45500Y34000
X44500Y24000
X45500Y24000
X64500Y34500
X64500Y33500
X64500Y24500
X64500Y23500
X46000Y14000
X47000Y14000
X48000Y14000
X49000Y14000
X50000Y14000
X51000Y14000
X52000Y14000
X53000Y14000
X54000Y14000
X55000Y14000
X56000Y14000
X57000Y14000
X58000Y14000
X59000Y14000
X59000Y17000
X58000Y17000
X57000Y17000
X56000Y17000
X55000Y17000
X54000Y17000
X53000Y17000
X52000Y17000
X51000Y17000
X50000Y17000
X49000Y17000
X48000Y17000
X47000Y17000
X46000Y17000
X52000Y12500
X53000Y12500
X68000Y17000
X69000Y17000
X62500Y17000
X63500Y17000
X71500Y18500
X71500Y17500
X66000Y18500
X66000Y17500
X40500Y16500
X40500Y13500
X8000Y29000
X7000Y29000
X8000Y19000
X7000Y19000
X27000Y29000
X26000Y29000
X27000Y19000
X26000Y19000
X14000Y29000
X14000Y30000
X15000Y19500
X14000Y19500
X34500Y29500
X33500Y29500
X34500Y19500
X33500Y19500
X46000Y29000
X45000Y29000
X65000Y29000
X64000Y29000
X53000Y29500
X52000Y29500
X72500Y29500
X71500Y29500
X33500Y9500
X33500Y8500
T04
X18500Y38000
X18500Y37000
X18500Y36000
X18500Y35000
X18500Y33000
X18500Y32000
X18500Y31000
X18500Y30000
X18500Y28000
X18500Y27000
X18500Y26000
X18500Y25000
X18500Y23000
X18500Y22000
X18500Y21000
X18500Y20000
X18500Y18000
X18500Y17000
X18500Y16000
X18500Y15000
X18500Y13000
X18500Y12000
X18500Y11000
X18500Y10000
X37500Y38000
X37500Y37000
X37500Y36000
X37500Y35000
X37500Y33000
X37500Y32000
X37500Y31000
X37500Y30000
X37500Y28000
X37500Y27000
X37500Y26000
X37500Y25000
X37500Y23000
X37500Y22000
X37500Y21000
X37500Y20000
X37500Y18000
X37500Y17000
X37500Y16000
X37500Y15000
X37500Y13000
X37500Y12000
X37500Y11000
X37500Y10000
X56500Y38000
X56500Y37000
X56500Y36000
X56500Y35000
X56500Y33000
X56500Y32000
X56500Y31000
X56500Y30000
X56500Y28000
X56500Y27000
X56500Y26000
X56500Y25000
X56500Y23000
X56500Y22000
X56500Y21000
X56500Y20000
X75500Y38000
X75500Y37000
X75500Y36000
X75500Y35000
X75500Y33000
X75500Y32000
X75500Y31000
X75500Y30000
X75500Y28000
X75500Y27000
X75500Y26000
X75500Y25000
X75500Y23000
X75500Y22000
X75500Y21000
X75500Y20000
X73280Y8500
X75681Y8500
X74500Y10390
T05
X59500Y11500
X59500Y10500
X58500Y11500
X58500Y10500
X57500Y11500
X57500Y10500
X75000Y12750
X75000Y14250
X75000Y15750
X75000Y17250
X43890Y16780
X42110Y16780
X43890Y14220
X42110Y14220
X46500Y10000
X47500Y10000
X48500Y10000
X49500Y10000
X50500Y10000
X46500Y11000
X47500Y11000
X48500Y11000
X49500Y11000
X50500Y11000
T06
X64500Y15000
X63500Y15000
X62500Y15000
X70000Y15000
X69000Y15000
X68000Y15000
T07
X63500Y9100
X69000Y9100
M30
