%
M48
M72
T01C0.0320
T02C0.0360
T03C0.0394
T04C0.0400
T05C0.0440
T06C0.0710
T07C0.1300
%
T01
X34000Y12500
X33000Y12500
X32000Y12500
X31000Y12500
X30000Y12500
X29000Y12500
X28000Y12500
X27000Y12500
X26000Y12500
X25000Y12500
X24000Y12500
X23000Y12500
X22000Y12500
X21000Y12500
X21000Y9500
X22000Y9500
X23000Y9500
X24000Y9500
X25000Y9500
X26000Y9500
X27000Y9500
X28000Y9500
X29000Y9500
X30000Y9500
X31000Y9500
X32000Y9500
X33000Y9500
X34000Y9500
X29500Y34000
X29500Y33000
X29500Y32000
X29500Y31000
X29500Y30000
X29500Y29000
X29500Y28000
X29500Y27000
X29500Y26000
X29500Y25000
X29500Y24000
X29500Y23000
X29500Y22000
X29500Y21000
X29500Y20000
X29500Y19000
X29500Y18000
X29500Y17000
X29500Y16000
X29500Y15000
X35500Y15000
X35500Y16000
X35500Y17000
X35500Y18000
X35500Y19000
X35500Y20000
X35500Y21000
X35500Y22000
X35500Y23000
X35500Y24000
X35500Y25000
X35500Y26000
X35500Y27000
X35500Y28000
X35500Y29000
X35500Y30000
X35500Y31000
X35500Y32000
X35500Y33000
X35500Y34000
X11000Y9000
X14000Y9000
X25500Y26000
X25500Y23000
X27500Y25000
X27500Y24000
X28000Y14500
X27000Y14500
X20000Y31000
X23000Y31000
X20000Y32000
X23000Y32000
X20000Y33000
X23000Y33000
X20000Y34000
X23000Y34000
X42000Y21000
X41000Y21000
X40000Y21000
X39000Y21000
X39000Y18000
X40000Y18000
X41000Y18000
X42000Y18000
X35500Y39500
X35500Y36500
X42000Y22500
X41000Y22500
X23500Y-1500
X23500Y1500
X22500Y-1500
X22500Y1500
X40500Y16000
X37500Y16000
X40500Y15000
X37500Y15000
X42500Y16000
X42500Y15000
X20000Y3000
X19000Y3000
X38500Y13500
X38500Y10500
X22000Y44000
X22000Y43000
X18500Y23500
X18500Y22500
X16000Y26000
X16000Y28000
X18500Y39500
X18500Y37500
X37500Y40500
X37500Y43500
X13500Y28500
X13500Y25500
X35500Y42000
X34500Y42000
X11000Y28000
X11000Y27000
X38500Y9000
X38500Y6000
T02
X21000Y6500
X22000Y6500
X23000Y6500
T03
X14220Y32500
X11819Y32500
X13000Y30610
T04
X13780Y10610
X13780Y12390
X11220Y10610
X11220Y12390
X23890Y24780
X22110Y24780
X23890Y22220
X22110Y22220
X20000Y27000
X19000Y27000
X20000Y28000
X19000Y28000
X20000Y29000
X19000Y29000
X17000Y9000
X16000Y9000
X17000Y10000
X16000Y10000
X17000Y11000
X16000Y11000
X15500Y3500
X15500Y2500
X15500Y1500
X15500Y500
X15500Y-500
X25500Y3500
X25500Y2500
X25500Y1500
X25500Y500
X25500Y-500
X39500Y40500
X40500Y40500
X39500Y39500
X40500Y39500
X39500Y38500
X40500Y38500
X39500Y37500
X40500Y37500
X39500Y36500
X40500Y36500
X39500Y35500
X40500Y35500
X39500Y34500
X40500Y34500
X39500Y31000
X40500Y31000
X39500Y30000
X40500Y30000
X39500Y29000
X40500Y29000
X39500Y28000
X40500Y28000
X39500Y27000
X40500Y27000
X39500Y26000
X40500Y26000
X39500Y25000
X40500Y25000
X25000Y34000
X26000Y34000
X25000Y33000
X26000Y33000
X25000Y32000
X26000Y32000
X25000Y31000
X26000Y31000
X25000Y30000
X26000Y30000
X25000Y29000
X26000Y29000
X25000Y28000
X26000Y28000
X25000Y27000
X26000Y27000
X25000Y19500
X26000Y19500
X25000Y18500
X26000Y18500
X25000Y17500
X26000Y17500
X25000Y16500
X26000Y16500
X25000Y15500
X26000Y15500
X41390Y8780
X39610Y8780
X41390Y6220
X39610Y6220
X41390Y10720
X39610Y10720
X41390Y13280
X39610Y13280
X14750Y38500
X13250Y38500
X11750Y38500
X10250Y38500
X22000Y39500
X22000Y37500
X33000Y38000
X31000Y38000
X19000Y19000
X21000Y19000
X20000Y16000
X20000Y14000
T05
X39250Y2500
X39250Y-500
X31250Y1000
X38250Y-1000
X38250Y3000
X30250Y1000
X20000Y42000
X20000Y43000
X20000Y44000
X16000Y21500
X16000Y22500
X16000Y23500
X32000Y41500
X32000Y42500
X32000Y43500
X16000Y15500
X16000Y16500
X16000Y17500
T06
X38250Y1000
T07
X14100Y43000
X10100Y22500
M30
